<?xml version="1.0" encoding="UTF-8" standalone="no"?>
<!-- Created with Inkscape (http://www.inkscape.org/) -->

<svg
   width="270.93332mm"
   height="270.93332mm"
   viewBox="0 0 270.93332 270.93332"
   version="1.1"
   id="svg1"
   xml:space="preserve"
   xmlns="http://www.w3.org/2000/svg"
   xmlns:svg="http://www.w3.org/2000/svg"><defs
     id="defs1" /><g
     id="layer1"
     transform="translate(-701.8797,-513.86199)"><rect
       style="fill:#ff6600;stroke-width:0;stroke-opacity:0.437107"
       id="rect3"
       width="270.93332"
       height="270.93332"
       x="701.8797"
       y="513.862" /><path
       style="fill:#000000;stroke-width:1.20579"
       d="M 722.97281,649.32866 V 531.44574 H 837.34638 951.7199 V 649.32866 767.21158 H 837.34638 722.97281 Z m 71.78255,84.95353 c 2.25038,-0.52868 5.7115,-2.24238 7.9421,-3.9324 2.40002,-1.81831 4.49497,-4.51525 5.98208,-7.70112 2.18647,-4.68415 2.04539,0.74647 1.94747,-74.98342 -0.082,-63.72922 -0.12672,-68.63178 -0.6346,-70.06456 -2.5552,-7.20851 -7.26408,-11.92474 -14.12036,-14.14276 -2.08229,-0.67359 -3.1692,-0.82569 -5.90218,-0.82587 -1.84242,-1.3e-4 -3.99589,0.16805 -4.78551,0.37375 -8.01346,2.08746 -13.62735,7.52398 -15.84393,15.34333 -0.56079,1.97828 -0.58629,5.04542 -0.58629,70.50098 v 68.4327 l 0.83501,2.44592 c 2.27691,6.66947 6.60506,11.34562 12.74397,13.76852 3.62498,1.4307 8.39138,1.73189 12.42224,0.78493 z m -7.60312,-147.05205 c -4.16142,-2.05987 -4.1326,-8.28294 0.0471,-10.18063 2.33568,-1.06042 4.65012,-0.72868 6.38804,0.91569 1.3242,1.25283 1.80604,2.3752 1.80604,4.20688 0,4.38668 -4.2848,7.01645 -8.24125,5.05806 z m 23.59994,142.17366 c 3.77523,-3.20758 7.02629,-7.82851 8.45902,-12.02296 2.77828,-8.13374 2.98254,-15.5615 1.0535,-38.29332 -0.96571,-11.37959 -4.64339,-45.20954 -4.94785,-45.514 -0.0784,-0.0788 -0.14326,18.4783 -0.14326,41.2381 0,36.43527 -0.0602,41.67541 -0.5033,43.84054 -0.89096,4.3533 -2.79105,8.22742 -5.5551,11.32613 -1.64929,1.84905 -0.90989,1.58959 1.63699,-0.57449 z m 40.80825,-41.80747 c 17.7896,-2.48123 34.28923,-13.02291 44.41599,-28.37764 12.25065,-18.57512 13.38133,-42.71863 2.97144,-63.45061 -1.24366,-2.47694 -3.04065,-5.65992 -3.99335,-7.07329 l -1.73225,-2.56976 -3.5319,2.36313 c -4.45204,2.97883 -8.82751,5.09856 -14.26493,6.9108 -4.62279,1.54071 -12.26235,3.55745 -14.7018,3.88105 -0.83791,0.11117 -1.51954,0.29128 -1.51483,0.40028 0,0.10903 0.59408,0.55707 1.30974,0.99575 2.11508,1.29647 6.6666,6.31343 8.23438,9.07643 7.10154,12.51563 4.9182,27.49028 -5.44767,37.36357 -6.28896,5.99001 -13.81337,8.75614 -22.70178,8.34555 -6.1651,-0.28478 -12.0336,-2.39611 -17.01245,-6.12069 -1.02952,-0.77013 -1.90721,-1.36483 -1.95049,-1.32155 -0.0434,0.0433 0.55598,5.88283 1.33167,12.97679 1.23137,11.26186 1.79869,17.17125 2.21227,23.0462 0.0591,0.84381 0.24635,1.67245 0.41541,1.84144 0.2906,0.29072 6.95285,1.69818 9.35372,1.97609 3.09504,0.35827 13.31102,0.19614 16.60683,-0.26354 z m 5.7256,-93.55334 c 19.80014,-3.31238 33.6926,-10.62103 42.54604,-22.38305 1.78265,-2.36818 5.30937,-8.34683 5.30889,-8.99958 -1.2e-4,-0.0598 -22.10912,-0.10892 -49.13127,-0.10892 -27.02213,0 -49.13101,0 -49.13101,0 1.2e-4,0 0.90785,0.97232 2.0173,2.1607 2.37433,2.54345 4.6071,6.18581 5.74525,9.37251 1.44081,4.03423 1.80846,6.92313 1.80846,14.21096 v 6.69117 l 18.4242,-0.13836 c 16.81568,-0.12629 18.77232,-0.19661 22.41214,-0.80551 z m -19.6206,-21.48824 c -4.09705,-0.52222 -12.8275,-3.29043 -14.02159,-4.44588 -0.18438,-0.17848 7.05293,-0.2933 18.48798,-0.2933 10.88931,0 18.66368,0.11853 18.488,0.28182 -0.5648,0.52522 -6.19225,2.5882 -9.1719,3.3624 -5.42149,1.4086 -9.05624,1.69738 -13.78249,1.09496 z"
       id="path2" /></g></svg>
